<svg width="20" height="20" viewBox="0 0 20 20" fill="none" xmlns="http://www.w3.org/2000/svg">
<path d="M10.2031 8.18176V12.0545H15.6948C15.4537 13.2999 14.73 14.3545 13.6447 15.0636L16.9564 17.5818C18.8859 15.8364 19.9991 13.2728 19.9991 10.2273C19.9991 9.51824 19.9342 8.83636 19.8135 8.18187L10.2031 8.18176Z" fill="#4285F4"/>
<path d="M4.48648 11.9034L3.73956 12.4637L1.0957 14.4818C2.77475 17.7454 6.21609 20 10.205 20C12.96 20 15.2699 19.1091 16.9582 17.5819L13.6465 15.0637C12.7374 15.6637 11.5778 16.0273 10.205 16.0273C7.5519 16.0273 5.29777 14.2728 4.49065 11.9092L4.48648 11.9034Z" fill="#34A853"/>
<path d="M1.09455 5.51817C0.39885 6.86357 0 8.38177 0 9.99992C0 11.6181 0.39885 13.1363 1.09455 14.4817C1.09455 14.4907 4.48982 11.8999 4.48982 11.8999C4.28574 11.2999 4.16511 10.6635 4.16511 9.99982C4.16511 9.3361 4.28574 8.69977 4.48982 8.09978L1.09455 5.51817Z" fill="#FBBC05"/>
<path d="M10.2052 3.98181C11.708 3.98181 13.0438 4.49089 14.1106 5.47272L17.0327 2.60912C15.2609 0.990969 12.9604 0 10.2052 0C6.2163 0 2.77475 2.24545 1.0957 5.51818L4.49087 8.1C5.29788 5.73634 7.55211 3.98181 10.2052 3.98181Z" fill="#EA4335"/>
</svg>
