<svg width="113" height="28" viewBox="0 0 113 28" fill="none" xmlns="http://www.w3.org/2000/svg">
<g clip-path="url(#clip0_94_4895)">
<path d="M30.0608 14.0897C30.0608 12.1855 28.9029 10.3645 26.7737 8.875C26.7663 9.05079 26.7493 9.23077 26.7377 9.40761C26.726 9.58445 26.7186 9.75393 26.7016 9.93393C26.6836 10.136 26.655 10.3413 26.6306 10.5455C26.6083 10.7255 26.5903 10.9044 26.5638 11.0855C26.533 11.2887 26.4938 11.4939 26.4577 11.6992C26.4259 11.8834 26.3973 12.0665 26.3602 12.2518C26.3188 12.4623 26.2679 12.6665 26.2202 12.8739C26.1789 13.0581 26.1407 13.2413 26.094 13.4265C26.04 13.6371 25.9753 13.8571 25.9148 14.0718C25.865 14.2497 25.8194 14.4276 25.7653 14.6055C25.6954 14.8339 25.6169 15.0613 25.5395 15.2897C25.4843 15.455 25.4334 15.6202 25.3751 15.7855C25.2839 16.0413 25.1821 16.296 25.0825 16.5508C25.0295 16.6865 24.9817 16.8234 24.9255 16.9581C24.7665 17.3476 24.5968 17.736 24.4176 18.116C24.2384 18.496 24.0508 18.8718 23.8578 19.2423C23.8111 19.3308 23.7655 19.4202 23.7178 19.5076C23.5227 19.8708 23.3234 20.2308 23.1134 20.5813L23.0509 20.6865C22.9225 20.8971 22.7932 21.1076 22.6606 21.3181C27.1586 19.8097 30.0608 17.0413 30.0608 14.0897Z" fill="white"/>
<path d="M9.43707 6.30078C3.77589 7.58604 0 10.6819 0 14.0903C0 16.4597 1.84395 18.7419 5.05786 20.3513C7.81476 21.7324 11.3574 22.4934 15.0251 22.4934C15.4704 22.4934 15.9137 22.4787 16.3526 22.4576C16.4916 22.4503 16.6273 22.4397 16.7651 22.4303C17.0705 22.4103 17.3738 22.3861 17.6749 22.3555C17.8286 22.3397 17.9803 22.3229 18.1319 22.305C18.4277 22.2703 18.7204 22.2282 19.012 22.1829C19.1498 22.1619 19.2887 22.1419 19.4255 22.1176C19.4838 22.1082 19.54 22.0945 19.5984 22.084L10.8654 8.52817L9.43707 6.30078Z" fill="white"/>
<path d="M16.7101 23.9339L16.3995 23.9507C15.9456 23.9729 15.4907 23.9876 15.0327 23.9876C14.5746 23.9876 14.1197 23.9739 13.6659 23.9518C13.5185 23.9444 13.3732 23.9318 13.2258 23.9223C12.9205 23.9023 12.6161 23.8802 12.3139 23.8497C12.1432 23.8329 11.9736 23.8118 11.8039 23.7918C11.5272 23.7592 11.2536 23.7244 10.9811 23.6865C10.8061 23.6602 10.6333 23.6318 10.4594 23.6034C10.1933 23.5571 9.92926 23.5076 9.6663 23.4539C9.49876 23.4202 9.33123 23.3865 9.16687 23.3486C8.89331 23.2865 8.6261 23.2192 8.35889 23.1497C8.21256 23.1107 8.06412 23.075 7.91991 23.035C7.6018 22.9434 7.2837 22.8444 6.9656 22.7413C6.88395 22.7139 6.79806 22.6907 6.71642 22.6623C6.3453 22.5345 5.98231 22.3984 5.62744 22.2539C6.08127 24.8771 7.27415 26.7339 9.05341 27.5455C11.8103 28.8086 15.618 27.275 18.9146 23.7181C18.676 23.7518 18.4364 23.7802 18.1957 23.8076C18.1405 23.8139 18.0897 23.8223 18.0313 23.8276C17.5977 23.8729 17.1555 23.9076 16.7101 23.9339Z" fill="white"/>
<path d="M21.2419 20.7221C21.3871 20.5021 21.5282 20.2779 21.666 20.0516C21.7434 19.9253 21.8197 19.7989 21.895 19.6705C22.0364 19.4305 22.1736 19.1874 22.3064 18.9411C22.369 18.8253 22.4337 18.7116 22.4952 18.5947C22.685 18.2316 22.8695 17.8642 23.0444 17.4895C24.5936 14.1632 25.3772 10.6326 25.2637 7.54947V7.52105L25.2266 6.75789C24.9329 3.63474 23.6616 1.35474 21.6819 0.442108C21.0348 0.149486 20.3318 -0.00129756 19.6206 8.41141e-06H19.4944C16.6728 0.0547453 13.4271 2.10526 10.7222 5.51789L18.907 18.2221L20.8697 21.2684C20.9131 21.2063 20.9587 21.1463 21.0022 21.0832C21.0839 20.9642 21.1623 20.8432 21.2419 20.7221Z" fill="white"/>
<path d="M42.4362 10.1172C43.5517 10.1172 44.5123 10.3298 45.3182 10.7551C46.1142 11.1706 46.7654 11.8148 47.1865 12.6035C47.6255 13.412 47.845 14.3979 47.845 15.5614V17.1478H40.061C40.0971 18.0699 40.3759 18.7933 40.8976 19.3183C41.4193 19.8431 42.1446 20.1057 43.0735 20.1057C43.7874 20.1124 44.4995 20.0332 45.1941 19.8699C45.8744 19.6988 46.536 19.4619 47.1696 19.1625V21.6888C46.5754 21.9808 45.9461 22.1966 45.297 22.3309C44.5162 22.4786 43.7221 22.547 42.9271 22.5351C41.7183 22.5351 40.6478 22.3137 39.7153 21.8709C38.7924 21.436 38.0273 20.7286 37.5247 19.8457C36.996 18.9383 36.7312 17.7951 36.7305 16.4162C36.7305 15.0126 36.9698 13.8463 37.4483 12.9172C37.8832 12.0285 38.5824 11.2937 39.4513 10.812C40.3046 10.3495 41.2995 10.1179 42.4362 10.1172ZM42.4574 12.4435C42.1646 12.4343 41.8729 12.4837 41.5998 12.5885C41.3265 12.6933 41.0774 12.8517 40.8669 13.0541C40.4427 13.461 40.1999 14.1004 40.1384 14.972H44.7583C44.7593 14.5267 44.6695 14.086 44.4943 13.6762C44.3354 13.3095 44.0727 12.9966 43.7383 12.7751C43.4026 12.5541 42.9756 12.4435 42.4574 12.4435Z" fill="white"/>
<path d="M53.9247 5.64844V9.52845C53.9247 9.97827 53.912 10.4246 53.8865 10.8674C53.8611 11.3106 53.8314 11.6537 53.7953 11.8958H53.9247C54.2573 11.385 54.6999 10.9536 55.2204 10.6327C55.7668 10.2867 56.4755 10.1134 57.3464 10.1127C58.6994 10.1127 59.7951 10.639 60.6335 11.6916C61.4718 12.7442 61.8928 14.2839 61.8964 16.3106C61.8964 17.6748 61.7023 18.8197 61.3142 19.7453C60.9262 20.6709 60.3843 21.3684 59.6887 21.8379C58.9703 22.3122 58.1231 22.5572 57.2605 22.54C56.3747 22.54 55.6767 22.3829 55.1664 22.0684C54.6945 21.7877 54.2745 21.4289 53.9247 21.0074H53.6967L53.1464 22.3253H50.6323V5.64844H53.9247ZM56.2882 12.7327C55.7124 12.7327 55.2554 12.8495 54.9172 13.0863C54.5585 13.3486 54.2975 13.7213 54.1749 14.1463C54.0037 14.7275 53.9183 15.3302 53.9215 15.9358V16.2895C53.9215 17.4537 54.0943 18.345 54.44 18.9632C54.7857 19.5814 55.4151 19.8902 56.3285 19.8895C57.005 19.8895 57.5429 19.579 57.9423 18.9579C58.3417 18.3369 58.5414 17.44 58.5414 16.2674C58.5414 15.0955 58.34 14.2134 57.937 13.6211C57.5341 13.0288 56.9844 12.7327 56.2882 12.7327Z" fill="white"/>
<path d="M66.3853 5.64557C66.8304 5.63364 67.2694 5.75109 67.6481 5.98347C68.0015 6.20873 68.1783 6.62978 68.1783 7.24662C68.1783 7.86347 68.0015 8.28452 67.6481 8.50978C67.266 8.73778 66.8285 8.85826 66.3826 8.85826C65.9367 8.85826 65.4992 8.73778 65.1171 8.50978C64.7672 8.2782 64.5925 7.85715 64.5933 7.24662C64.594 6.6361 64.7685 6.21504 65.1171 5.98347C65.4972 5.74962 65.9382 5.63211 66.3853 5.64557ZM68.0256 10.3393V22.3203H64.7332V10.3393H68.0256Z" fill="white"/>
<path d="M75.1214 27.5962C73.4362 27.5962 72.1496 27.3053 71.2618 26.7235C70.3739 26.1418 69.9297 25.3253 69.9289 24.2741C69.9086 23.6055 70.1525 22.9558 70.6086 22.4635C71.0624 21.9772 71.728 21.6305 72.6052 21.4235C72.2535 21.2705 71.9486 21.0284 71.7209 20.7214C71.4719 20.4119 71.3381 20.0265 71.3419 19.6303C71.3457 19.2342 71.4871 18.8514 71.7421 18.5467C72.0763 18.189 72.4662 17.8869 72.8968 17.652C72.2685 17.3844 71.7415 16.9264 71.3911 16.3435C71.02 15.7435 70.8348 15.0365 70.8355 14.2225C70.8355 13.3509 71.0277 12.6094 71.4123 11.9983C71.8162 11.3718 72.4044 10.8837 73.0972 10.6004C73.8338 10.2783 74.7315 10.1172 75.7905 10.1172C76.0132 10.1172 76.2722 10.1316 76.5677 10.1604C76.8633 10.1891 77.1347 10.2214 77.3821 10.2572C77.6313 10.293 77.7977 10.3214 77.8847 10.3425H82.0943V12.0035L80.2058 12.4857C80.3766 12.7457 80.5073 13.0294 80.5939 13.3278C80.6819 13.638 80.7255 13.959 80.7232 14.2814C80.7232 15.5663 80.2718 16.5684 79.3692 17.2878C78.4665 18.007 77.2124 18.366 75.6071 18.3646C75.2253 18.3421 74.8656 18.3133 74.5276 18.2783C74.3773 18.3898 74.2489 18.5279 74.1491 18.6857C74.0651 18.8211 74.0204 18.977 74.0197 19.1362C74.0192 19.2123 74.037 19.2874 74.0717 19.3554C74.1064 19.4233 74.1569 19.4821 74.2191 19.5267C74.4002 19.65 74.6073 19.7306 74.8245 19.7624C75.1573 19.8217 75.495 19.8488 75.8329 19.8435H77.8847C79.2087 19.8435 80.2182 20.1242 80.913 20.6857C81.6079 21.247 81.955 22.0758 81.9543 23.172C81.9543 24.5754 81.3658 25.6614 80.1888 26.4299C79.0118 27.1983 77.3227 27.587 75.1214 27.5962ZM75.2614 25.4635C75.9428 25.4753 76.6228 25.4018 77.2856 25.2446C77.8511 25.0972 78.2848 24.8899 78.5866 24.6225C78.7286 24.5057 78.8428 24.3591 78.9212 24.1933C78.9994 24.0275 79.0398 23.8466 79.0394 23.6635C79.0463 23.5331 79.0265 23.4028 78.9811 23.2803C78.9357 23.1578 78.8657 23.0457 78.7754 22.9509C78.598 22.7747 78.3314 22.6515 77.9759 22.5814C77.5254 22.5027 77.0684 22.4674 76.6112 22.4762H74.9041C74.5334 22.4703 74.165 22.5358 73.8193 22.6688C73.5225 22.7805 73.2602 22.9669 73.058 23.2098C72.8717 23.4386 72.7722 23.7251 72.777 24.0193C72.777 24.4691 72.9947 24.8228 73.4302 25.0804C73.8657 25.3379 74.476 25.4657 75.2614 25.4635ZM75.7916 16.3762C76.4094 16.3762 76.8628 16.1867 77.152 15.8078C77.4411 15.4288 77.5849 14.9144 77.5835 14.2646C77.5835 13.5431 77.434 13.0021 77.135 12.6414C76.836 12.2807 76.3882 12.1004 75.7916 12.1004C75.1872 12.1004 74.7337 12.2807 74.4311 12.6414C74.1286 13.0021 73.9773 13.5431 73.9773 14.2646C73.9773 14.9151 74.1268 15.4294 74.4258 15.8078C74.7249 16.186 75.1797 16.3754 75.7905 16.3762H75.7916Z" fill="white"/>
<path d="M83.3252 16.3114C83.3252 15.6398 83.5108 15.1682 83.8819 14.8967C84.2727 14.6185 84.7447 14.4755 85.2253 14.4892C85.6992 14.4775 86.1637 14.6207 86.5476 14.8967C86.9187 15.1682 87.1043 15.6398 87.1043 16.3114C87.1043 16.9541 86.9187 17.4188 86.5476 17.7051C86.1689 17.9933 85.7024 18.1444 85.2253 18.1335C84.7415 18.1467 84.2675 17.9955 83.8819 17.7051C83.5108 17.4188 83.3252 16.9541 83.3252 16.3114Z" fill="white"/>
<path d="M95.0248 22.5381C93.8309 22.5381 92.8126 22.322 91.97 21.8897C91.122 21.4509 90.4458 20.7438 90.0486 19.8802C89.6096 18.9728 89.3901 17.8118 89.3901 16.397C89.3901 14.9331 89.6404 13.7402 90.1409 12.8181C90.598 11.9343 91.3282 11.219 92.2244 10.777C93.113 10.3412 94.1437 10.123 95.3164 10.1223C96.0456 10.1101 96.7734 10.1915 97.4816 10.3644C98.0294 10.5031 98.5621 10.6949 99.0722 10.937L98.1009 13.4633C97.582 13.2528 97.0999 13.083 96.6546 12.9539C96.2201 12.8239 95.7691 12.7572 95.3153 12.756C94.7393 12.756 94.2606 12.89 93.8796 13.1581C93.4987 13.4262 93.2159 13.8279 93.0314 14.3633C92.8447 14.8994 92.7511 15.571 92.7504 16.3781C92.7504 17.1704 92.8511 17.8276 93.0526 18.3497C93.254 18.8718 93.5456 19.2578 93.9274 19.5076C94.3422 19.7708 94.8275 19.9033 95.3196 19.8876C95.9389 19.8977 96.5556 19.8056 97.1444 19.6149C97.6927 19.4248 98.215 19.1674 98.6989 18.8486V21.6454C98.2109 21.9533 97.6771 22.1828 97.1169 22.3254C96.4309 22.4809 95.7283 22.5524 95.0248 22.5381Z" fill="white"/>
<path d="M112.57 16.312C112.585 17.2141 112.448 18.1124 112.165 18.9699C111.921 19.699 111.52 20.3665 110.988 20.9257C110.469 21.4608 109.834 21.8727 109.132 22.1308C108.348 22.4127 107.52 22.5507 106.687 22.5383C105.89 22.5469 105.099 22.4087 104.354 22.1308C103.657 21.8674 103.027 21.4561 102.508 20.9257C101.969 20.3664 101.557 19.6996 101.299 18.9699C101.002 18.1153 100.858 17.2158 100.875 16.312C100.875 14.9835 101.112 13.8583 101.587 12.9362C102.031 12.0468 102.739 11.3139 103.616 10.8362C104.495 10.3569 105.542 10.1172 106.758 10.1172C107.889 10.1172 108.891 10.3569 109.765 10.8362C110.645 11.3205 111.362 12.0507 111.826 12.9362C112.322 13.8583 112.57 14.9835 112.57 16.312ZM104.226 16.312C104.209 16.9819 104.297 17.6503 104.484 18.2941C104.657 18.8302 104.927 19.2341 105.294 19.5056C105.661 19.7772 106.139 19.913 106.73 19.913C107.313 19.913 107.786 19.7772 108.15 19.5056C108.514 19.2341 108.78 18.8302 108.948 18.2941C109.132 17.6495 109.218 16.9814 109.202 16.312C109.202 15.5189 109.117 14.86 108.948 14.3351C108.78 13.8102 108.511 13.4154 108.145 13.1509C107.778 12.887 107.299 12.7547 106.709 12.7541C105.837 12.7541 105.206 13.0505 104.814 13.6435C104.422 14.2365 104.226 15.126 104.226 16.312Z" fill="white"/>
</g>
<defs>
<clipPath id="clip0_94_4895">
<rect width="112.609" height="28" fill="white"/>
</clipPath>
</defs>
</svg>
